<?xml version="1.0" encoding="utf-8"?>
<!-- Generator: Adobe Illustrator 19.0.0, SVG Export Plug-In . SVG Version: 6.00 Build 0)  -->
<svg version="1.1" id="Layer_1" xmlns="http://www.w3.org/2000/svg" xmlns:xlink="http://www.w3.org/1999/xlink" x="0px" y="0px"
	 viewBox="-899 901 200 200" style="enable-background:new -899 901 200 200;" xml:space="preserve">
<style type="text/css">
	.st0{fill:none;stroke:#FFFFFF;stroke-width:30.0791;stroke-linecap:round;stroke-linejoin:round;}
	.st1{fill:#252229;}
	.st2{fill:#478CBF;}
	.st3{fill:#F5E0CD;}
	.st4{fill:none;stroke:#252229;stroke-width:6.0406;stroke-linecap:round;stroke-miterlimit:10;}
	.st5{fill:#FFFFFF;}
</style>
<g id="XMLID_26_">
	<g>
		<g id="XMLID_164_">
			<path class="st0" d="M-729.2,997.5c0,43.9-34.3,86.4-76.7,86.4c-42.3,0-76.7-42.5-76.7-86.4c0-6.4,0.7-12.6,2.1-18.5
				c8-35,38.4-61,74.6-61c35.2,0,64.9,24.6,73.9,58.2C-730.1,983-729.2,990.2-729.2,997.5z"/>
			<path class="st0" d="M-729.2,997.5c0,43.9-34.3,86.4-76.7,86.4c-42.3,0-76.7-42.5-76.7-86.4c0-6.4,0.7-12.6,2.1-18.5
				c8-35,38.4-61,74.6-61c35.2,0,64.9,24.6,73.9,58.2C-730.1,983-729.2,990.2-729.2,997.5z"/>
		</g>
		<g id="XMLID_163_">
			<path class="st0" d="M-715.5,945.9c0,0-6.2,12.3-17.1,15.2c-10.9,2.9-22.5-4.6-22.5-4.6s6.2-12.3,17.1-15.2
				C-727,938.4-715.5,945.9-715.5,945.9z"/>
			<path class="st0" d="M-715.5,945.9c0,0-6.2,12.3-17.1,15.2c-10.9,2.9-22.5-4.6-22.5-4.6s6.2-12.3,17.1-15.2
				C-727,938.4-715.5,945.9-715.5,945.9z"/>
		</g>
		<g id="XMLID_162_">
			<path class="st0" d="M-728,925c0,0,1.5,13.7-6,22.1c-7.6,8.4-21.3,8.4-21.3,8.4s-1.5-13.7,6-22.1C-741.8,925-728,925-728,925z"/>
			<path class="st0" d="M-728,925c0,0,1.5,13.7-6,22.1c-7.6,8.4-21.3,8.4-21.3,8.4s-1.5-13.7,6-22.1C-741.8,925-728,925-728,925z"/>
		</g>
		<g id="XMLID_161_">
			<path class="st0" d="M-732,976.3c0,0-22.8,12.4-73.9,11.8c-51.1-0.6-74.6-9-74.6-9v0c4.5-19.7,16.1-36.6,31.9-47.5
				c11.1,1.4,25.3,2.5,42.7,2.7c17.3,0.2,31.4-1.1,42.4-2.9C-748.3,941.8-736.9,957.6-732,976.3z"/>
			<path class="st0" d="M-732,976.3c0,0-22.8,12.4-73.9,11.8c-51.1-0.6-74.6-9-74.6-9v0c4.5-19.7,16.1-36.6,31.9-47.5
				c11.1,1.4,25.3,2.5,42.7,2.7c17.3,0.2,31.4-1.1,42.4-2.9C-748.3,941.8-736.9,957.6-732,976.3z"/>
		</g>
		<g id="XMLID_159_">
			<path id="XMLID_160_" class="st0" d="M-803.2,995.5c-1.8,0.1-3.6,0.1-5.4,0c-10.6-0.3-49.4,0.6-50.3,30.7
				c-0.5,17.4,16.4,25.5,28.3,24.5c12-1.1,17-6.9,24-6.9h1.4c6.9,0,11.9,5.8,23.9,6.9c11.9,1.1,28.8-7.1,28.3-24.5
				C-753.8,996.1-792.5,995.2-803.2,995.5z"/>
		</g>
		<g id="XMLID_154_">
			<path id="XMLID_158_" class="st0" d="M-832.9,1039.4L-832.9,1039.4c-4.4,0-7.9-3.6-7.9-7.9v-4.8c0-4.4,3.6-7.9,7.9-7.9l0,0
				c4.4,0,7.9,3.6,7.9,7.9v4.8C-825,1035.8-828.5,1039.4-832.9,1039.4z"/>
			<path id="XMLID_157_" class="st0" d="M-778.8,1039.4L-778.8,1039.4c-4.4,0-7.9-3.6-7.9-7.9v-4.8c0-4.4,3.6-7.9,7.9-7.9l0,0
				c4.4,0,7.9,3.6,7.9,7.9v4.8C-770.8,1035.8-774.4,1039.4-778.8,1039.4z"/>
			<path id="XMLID_156_" class="st0" d="M-840.9,1010.1c0,0,6.2-1.3,7.9-1.3c1.8,0,6.2,1.3,6.2,1.3"/>
			<path id="XMLID_155_" class="st0" d="M-785.8,1010.7c0,0,6.2-1.3,7.9-1.3s6.2,1.3,6.2,1.3"/>
		</g>
		<g id="XMLID_144_">
			<path id="XMLID_148_" class="st0" d="M-811.3,938.1c-2.3,0.5-4.6,1.2-6.7,2.3c0,1.9,0.2,3.7,0.4,5.5c-0.8,0.5-1.7,1-2.5,1.6
				c-0.8,0.6-1.6,1.2-2.3,1.9c-1.4-0.9-2.9-1.8-4.5-2.6c-1.7,1.8-3.2,3.7-4.5,5.9c1,1.6,2,3,3,4.4h0v13.4c0,0,0,0,0.1,0l8.2,0.8
				c0.4,0,0.8,0.4,0.8,0.8l0.3,3.6l7.1,0.5l0.5-3.3c0.1-0.4,0.4-0.8,0.9-0.8h8.6c0.4,0,0.8,0.3,0.9,0.8l0.5,3.3l7.1-0.5l0.3-3.6
				c0-0.4,0.4-0.8,0.8-0.8l8.2-0.8c0,0,0,0,0.1,0v-1.1l0,0v-12.3h0c1.1-1.4,2.1-2.8,3-4.4c-1.3-2.2-2.8-4.1-4.5-5.9
				c-1.6,0.8-3.1,1.7-4.5,2.6c-0.7-0.7-1.5-1.3-2.3-1.9c-0.8-0.6-1.6-1.1-2.5-1.6c0.2-1.8,0.4-3.6,0.4-5.5c-2.1-1.1-4.4-1.8-6.7-2.3
				c-0.9,1.5-1.8,3.2-2.5,4.9c-0.9-0.1-1.7-0.2-2.6-0.2v0c0,0,0,0,0,0c0,0,0,0,0,0v0c-0.9,0-1.7,0.1-2.6,0.2
				C-809.6,941.3-810.4,939.6-811.3,938.1L-811.3,938.1z M-817.8,957.6c2.7,0,4.9,2.2,4.9,4.9c0,2.7-2.2,4.9-4.9,4.9
				c-2.7,0-4.9-2.2-4.9-4.9C-822.7,959.8-820.5,957.6-817.8,957.6z M-794.6,957.6c2.7,0,4.9,2.2,4.9,4.9c0,2.7-2.2,4.9-4.9,4.9
				c-2.7,0-4.9-2.2-4.9-4.9C-799.5,959.8-797.3,957.6-794.6,957.6z M-806.2,960.5c0.9,0,1.6,0.6,1.6,1.4v4.5c0,0.8-0.7,1.4-1.6,1.4
				c-0.9,0-1.6-0.6-1.6-1.4v-4.5C-807.8,961.1-807.1,960.5-806.2,960.5z M-828.3,972.2c0,0.8,0,1.7,0,1.8c0,7.8,9.9,11.5,22.1,11.6
				h0c12.3,0,22.1-3.8,22.1-11.6c0-0.2,0-1,0-1.8l-7.4,0.7l-0.3,3.6c0,0.4-0.4,0.8-0.8,0.8l-8.7,0.6c0,0,0,0-0.1,0
				c-0.4,0-0.8-0.3-0.9-0.8l-0.5-3.4h-7.1l-0.5,3.4c-0.1,0.5-0.5,0.8-0.9,0.8l-8.7-0.6c-0.4,0-0.8-0.4-0.8-0.8l-0.3-3.6
				L-828.3,972.2L-828.3,972.2z"/>
			<path id="XMLID_145_" class="st0" d="M-817.3,959.6c-1.8,0-3.3,1.5-3.3,3.3s1.5,3.3,3.3,3.3c1.8,0,3.3-1.5,3.3-3.3
				C-814,961-815.5,959.6-817.3,959.6z M-795.1,959.6c-1.8,0-3.3,1.5-3.3,3.3s1.5,3.3,3.3,3.3c1.8,0,3.3-1.5,3.3-3.3
				C-791.8,961-793.3,959.6-795.1,959.6z"/>
		</g>
	</g>
	<g>
		<g id="XMLID_143_">
			<path class="st1" d="M-729.2,997.5c0,43.9-34.3,86.4-76.7,86.4c-42.3,0-76.7-42.5-76.7-86.4c0-6.4,0.7-12.6,2.1-18.5
				c8-35,38.4-61,74.6-61c35.2,0,64.9,24.6,73.9,58.2C-730.1,983-729.2,990.2-729.2,997.5z"/>
		</g>
		<g id="XMLID_142_">
			<path class="st2" d="M-715.5,945.9c0,0-6.2,12.3-17.1,15.2c-10.9,2.9-22.5-4.6-22.5-4.6s6.2-12.3,17.1-15.2
				C-727,938.4-715.5,945.9-715.5,945.9z"/>
		</g>
		<g id="XMLID_141_">
			<path class="st2" d="M-728,925c0,0,1.5,13.7-6,22.1c-7.6,8.4-21.3,8.4-21.3,8.4s-1.5-13.7,6-22.1C-741.8,925-728,925-728,925z"/>
		</g>
		<g id="XMLID_140_">
			<path class="st2" d="M-732,976.3c0,0-22.8,12.4-73.9,11.8c-51.1-0.6-74.6-9-74.6-9v0c4.5-19.7,16.1-36.6,31.9-47.5
				c11.1,1.4,25.3,2.5,42.7,2.7c17.3,0.2,31.4-1.1,42.4-2.9C-748.3,941.8-736.9,957.6-732,976.3z"/>
		</g>
		<g id="XMLID_138_">
			<path id="XMLID_139_" class="st3" d="M-803.2,995.5c-1.8,0.1-3.6,0.1-5.4,0c-10.6-0.3-49.4,0.6-50.3,30.7
				c-0.5,17.4,16.4,25.5,28.3,24.5c12-1.1,17-6.9,24-6.9h1.4c6.9,0,11.9,5.8,23.9,6.9c11.9,1.1,28.8-7.1,28.3-24.5
				C-753.8,996.1-792.5,995.2-803.2,995.5z"/>
		</g>
		<g id="XMLID_133_">
			<path id="XMLID_137_" class="st1" d="M-832.9,1039.4L-832.9,1039.4c-4.4,0-7.9-3.6-7.9-7.9v-4.8c0-4.4,3.6-7.9,7.9-7.9l0,0
				c4.4,0,7.9,3.6,7.9,7.9v4.8C-825,1035.8-828.5,1039.4-832.9,1039.4z"/>
			<path id="XMLID_136_" class="st1" d="M-778.8,1039.4L-778.8,1039.4c-4.4,0-7.9-3.6-7.9-7.9v-4.8c0-4.4,3.6-7.9,7.9-7.9l0,0
				c4.4,0,7.9,3.6,7.9,7.9v4.8C-770.8,1035.8-774.4,1039.4-778.8,1039.4z"/>
			<path id="XMLID_135_" class="st4" d="M-840.9,1010.1c0,0,6.2-1.3,7.9-1.3c1.8,0,6.2,1.3,6.2,1.3"/>
			<path id="XMLID_134_" class="st4" d="M-785.8,1010.7c0,0,6.2-1.3,7.9-1.3s6.2,1.3,6.2,1.3"/>
		</g>
		<g id="XMLID_123_">
			<path id="XMLID_127_" class="st5" d="M-811.3,938.1c-2.3,0.5-4.6,1.2-6.7,2.3c0,1.9,0.2,3.7,0.4,5.5c-0.8,0.5-1.7,1-2.5,1.6
				c-0.8,0.6-1.6,1.2-2.3,1.9c-1.4-0.9-2.9-1.8-4.5-2.6c-1.7,1.8-3.2,3.7-4.5,5.9c1,1.6,2,3,3,4.4h0v13.4c0,0,0,0,0.1,0l8.2,0.8
				c0.4,0,0.8,0.4,0.8,0.8l0.3,3.6l7.1,0.5l0.5-3.3c0.1-0.4,0.4-0.8,0.9-0.8h8.6c0.4,0,0.8,0.3,0.9,0.8l0.5,3.3l7.1-0.5l0.3-3.6
				c0-0.4,0.4-0.8,0.8-0.8l8.2-0.8c0,0,0,0,0.1,0v-1.1l0,0v-12.3h0c1.1-1.4,2.1-2.8,3-4.4c-1.3-2.2-2.8-4.1-4.5-5.9
				c-1.6,0.8-3.1,1.7-4.5,2.6c-0.7-0.7-1.5-1.3-2.3-1.9c-0.8-0.6-1.6-1.1-2.5-1.6c0.2-1.8,0.4-3.6,0.4-5.5c-2.1-1.1-4.4-1.8-6.7-2.3
				c-0.9,1.5-1.8,3.2-2.5,4.9c-0.9-0.1-1.7-0.2-2.6-0.2v0c0,0,0,0,0,0c0,0,0,0,0,0v0c-0.9,0-1.7,0.1-2.6,0.2
				C-809.6,941.3-810.4,939.6-811.3,938.1L-811.3,938.1z M-817.8,957.6c2.7,0,4.9,2.2,4.9,4.9c0,2.7-2.2,4.9-4.9,4.9
				c-2.7,0-4.9-2.2-4.9-4.9C-822.7,959.8-820.5,957.6-817.8,957.6z M-794.6,957.6c2.7,0,4.9,2.2,4.9,4.9c0,2.7-2.2,4.9-4.9,4.9
				c-2.7,0-4.9-2.2-4.9-4.9C-799.5,959.8-797.3,957.6-794.6,957.6z M-806.2,960.5c0.9,0,1.6,0.6,1.6,1.4v4.5c0,0.8-0.7,1.4-1.6,1.4
				c-0.9,0-1.6-0.6-1.6-1.4v-4.5C-807.8,961.1-807.1,960.5-806.2,960.5z M-828.3,972.2c0,0.8,0,1.7,0,1.8c0,7.8,9.9,11.5,22.1,11.6
				h0c12.3,0,22.1-3.8,22.1-11.6c0-0.2,0-1,0-1.8l-7.4,0.7l-0.3,3.6c0,0.4-0.4,0.8-0.8,0.8l-8.7,0.6c0,0,0,0-0.1,0
				c-0.4,0-0.8-0.3-0.9-0.8l-0.5-3.4h-7.1l-0.5,3.4c-0.1,0.5-0.5,0.8-0.9,0.8l-8.7-0.6c-0.4,0-0.8-0.4-0.8-0.8l-0.3-3.6
				L-828.3,972.2L-828.3,972.2z"/>
			<path id="XMLID_124_" class="st5" d="M-817.3,959.6c-1.8,0-3.3,1.5-3.3,3.3s1.5,3.3,3.3,3.3c1.8,0,3.3-1.5,3.3-3.3
				C-814,961-815.5,959.6-817.3,959.6z M-795.1,959.6c-1.8,0-3.3,1.5-3.3,3.3s1.5,3.3,3.3,3.3c1.8,0,3.3-1.5,3.3-3.3
				C-791.8,961-793.3,959.6-795.1,959.6z"/>
		</g>
	</g>
</g>
</svg>
